<svg width="26" height="22" viewBox="0 0 26 22" fill="none" xmlns="http://www.w3.org/2000/svg">
<path fill-rule="evenodd" clip-rule="evenodd" d="M1.86743 18.1867C1.37629 18.1867 0.893429 18.3891 0.545714 18.744C0.198286 19.0989 0 19.5917 0 20.0933C0 20.5949 0.198286 21.0877 0.545714 21.4427C0.893429 21.7976 1.37629 22 1.86743 22C2.35857 22 2.84114 21.7976 3.18886 21.4427C3.53657 21.0877 3.73486 20.5949 3.73486 20.0933C3.73486 19.5917 3.53657 19.0989 3.18886 18.744C2.84114 18.3891 2.35857 18.1867 1.86743 18.1867ZM1.86743 9.09333C1.37629 9.09333 0.893429 9.29573 0.545714 9.65067C0.198286 10.0056 0 10.4984 0 11C0 11.5016 0.198286 11.9944 0.545714 12.3464C0.893429 12.7043 1.37629 12.9067 1.86743 12.9067C2.35857 12.9067 2.84114 12.7043 3.18886 12.3464C3.53657 11.9915 3.73486 11.5016 3.73486 11C3.73486 10.4984 3.53657 10.0056 3.18886 9.65067C2.84114 9.29573 2.35857 9.09333 1.86743 9.09333ZM1.86743 0C1.37629 0 0.893429 0.2024 0.545714 0.557333C0.198286 0.912267 0 1.40507 0 1.90667C0 2.40827 0.198286 2.90107 0.545714 3.256C0.893429 3.61093 1.37629 3.81333 1.86743 3.81333C2.35857 3.81333 2.84114 3.61093 3.18886 3.256C3.53657 2.90107 3.73486 2.40827 3.73486 1.90667C3.73486 1.40507 3.53657 0.912267 3.18886 0.557333C2.84114 0.2024 2.35857 0 1.86743 0ZM21.164 18.3333H8.53743C7.58543 18.3333 6.81343 19.1215 6.81343 20.0933C6.81343 21.0651 7.58543 21.8533 8.53743 21.8533H21.164C22.1157 21.8533 22.8877 21.0651 22.8877 20.0933C22.8877 19.1215 22.1157 18.3333 21.164 18.3333ZM8.53743 12.76H17.4857C18.4374 12.76 19.2094 11.9718 19.2094 11C19.2094 10.0282 18.4374 9.24 17.4857 9.24H8.53743C7.58543 9.24 6.81343 10.0282 6.81343 11C6.81343 11.9718 7.58543 12.76 8.53743 12.76ZM26 1.90667C26 2.87848 25.2283 3.66667 24.2763 3.66667H8.53743C7.58543 3.66667 6.81343 2.87848 6.81343 1.90667C6.81343 0.934853 7.58543 0.146667 8.53743 0.146667H24.2763C25.2283 0.146667 26 0.934853 26 1.90667Z" fill="white"/>
</svg>
