<svg width="121" height="33" viewBox="0 0 121 33" fill="none" xmlns="http://www.w3.org/2000/svg">
<path d="M0.8 32V25.44H2.8V7.44H0.8V0.879998H17.68V7.44H14V25.44H17.6V21.76H25.56V32H0.8ZM41.9728 32.56C37.0928 32.56 33.3195 31.28 30.6528 28.72C28.0128 26.16 26.6928 22.0667 26.6928 16.44C26.6928 10.8133 28.0128 6.72 30.6528 4.16C33.3195 1.6 37.0928 0.319998 41.9728 0.319998C46.8528 0.319998 50.6128 1.6 53.2528 4.16C55.9195 6.72 57.2528 10.8133 57.2528 16.44C57.2528 22.0667 55.9195 26.16 53.2528 28.72C50.6128 31.28 46.8528 32.56 41.9728 32.56ZM41.9728 25.44C42.8795 25.44 43.5595 25.2 44.0128 24.72C44.4661 24.24 44.6928 23.4933 44.6928 22.48V10.4C44.6928 9.38667 44.4661 8.64 44.0128 8.16C43.5595 7.68 42.8795 7.44 41.9728 7.44C41.0661 7.44 40.3861 7.68 39.9328 8.16C39.4795 8.64 39.2528 9.38667 39.2528 10.4V22.48C39.2528 23.52 39.4795 24.28 39.9328 24.76C40.3861 25.2133 41.0661 25.44 41.9728 25.44ZM88.7725 22H86.7725V30C85.5992 30.6667 83.8792 31.2667 81.6125 31.8C79.3725 32.3067 76.9458 32.56 74.3325 32.56C69.3458 32.56 65.4392 31.2533 62.6125 28.64C59.7858 26 58.3725 21.9333 58.3725 16.44C58.3725 10.8133 59.7725 6.72 62.5725 4.16C65.3992 1.6 69.4258 0.319998 74.6525 0.319998C77.1858 0.319998 79.5592 0.586665 81.7725 1.12C83.9858 1.65333 85.6525 2.25333 86.7725 2.92V12.48H76.7725V10.6C76.7725 9.48 76.5325 8.68 76.0525 8.2C75.5992 7.69333 74.8658 7.44 73.8525 7.44C72.8392 7.44 72.0925 7.69333 71.6125 8.2C71.1592 8.68 70.9325 9.48 70.9325 10.6V22.28C70.9325 23.4 71.1592 24.2133 71.6125 24.72C72.0925 25.2 72.8392 25.44 73.8525 25.44C74.8658 25.44 75.5992 25.2 76.0525 24.72C76.5325 24.2133 76.7725 23.4 76.7725 22.28V22H74.6125V16.04H88.7725V22ZM104.942 32.56C100.062 32.56 96.2882 31.28 93.6216 28.72C90.9816 26.16 89.6616 22.0667 89.6616 16.44C89.6616 10.8133 90.9816 6.72 93.6216 4.16C96.2882 1.6 100.062 0.319998 104.942 0.319998C109.822 0.319998 113.582 1.6 116.222 4.16C118.888 6.72 120.222 10.8133 120.222 16.44C120.222 22.0667 118.888 26.16 116.222 28.72C113.582 31.28 109.822 32.56 104.942 32.56ZM104.942 25.44C105.848 25.44 106.528 25.2 106.982 24.72C107.435 24.24 107.662 23.4933 107.662 22.48V10.4C107.662 9.38667 107.435 8.64 106.982 8.16C106.528 7.68 105.848 7.44 104.942 7.44C104.035 7.44 103.355 7.68 102.902 8.16C102.448 8.64 102.222 9.38667 102.222 10.4V22.48C102.222 23.52 102.448 24.28 102.902 24.76C103.355 25.2133 104.035 25.44 104.942 25.44Z" fill="white"/>
</svg>
